<svg width="228" height="44" viewBox="0 0 228 44" fill="none" xmlns="http://www.w3.org/2000/svg">
<path d="M24.1445 4H36.217V25.9275C36.217 32.595 30.812 38 24.1445 38V4Z" fill="#044284"/>
<path d="M0 25.6807H12.0725V37.9995C5.40502 37.9995 0 32.5945 0 25.927V25.6807Z" fill="#0F76E1"/>
<path d="M12.0723 14.5938H24.1447V37.9995H12.0723V14.5938Z" fill="#0A63C0"/>
<circle cx="5.91304" cy="9.91304" r="5.91304" fill="#F26419"/>
<path d="M58.0293 31.3125C58.0293 32.4062 57.7533 33.3281 57.2012 34.0781C56.6595 34.8177 55.8783 35.375 54.8574 35.75C53.847 36.125 52.6387 36.3125 51.2324 36.3125C50.0345 36.3125 48.998 36.2188 48.123 36.0312C47.248 35.8438 46.4824 35.5781 45.8262 35.2344V32.8438C46.5241 33.1875 47.3574 33.5 48.3262 33.7812C49.2949 34.0625 50.2845 34.2031 51.2949 34.2031C52.7741 34.2031 53.847 33.9635 54.5137 33.4844C55.1803 33.0052 55.5137 32.3542 55.5137 31.5312C55.5137 31.0625 55.3783 30.651 55.1074 30.2969C54.847 29.9323 54.4043 29.5833 53.7793 29.25C53.1543 28.9062 52.2897 28.5312 51.1855 28.125C50.0918 27.7083 49.1439 27.2969 48.3418 26.8906C47.5501 26.474 46.9355 25.9688 46.498 25.375C46.071 24.7812 45.8574 24.0104 45.8574 23.0625C45.8574 21.6146 46.4408 20.5052 47.6074 19.7344C48.7845 18.9531 50.3262 18.5625 52.2324 18.5625C53.2637 18.5625 54.2272 18.6667 55.123 18.875C56.0293 19.0729 56.873 19.3438 57.6543 19.6875L56.7793 21.7656C56.071 21.4635 55.3158 21.2083 54.5137 21C53.7116 20.7917 52.8939 20.6875 52.0605 20.6875C50.8626 20.6875 49.9408 20.8854 49.2949 21.2812C48.6595 21.6771 48.3418 22.2188 48.3418 22.9062C48.3418 23.4375 48.4876 23.875 48.7793 24.2188C49.0814 24.5625 49.5605 24.8854 50.2168 25.1875C50.873 25.4896 51.7376 25.8438 52.8105 26.25C53.8835 26.6458 54.8105 27.0573 55.5918 27.4844C56.373 27.901 56.972 28.4115 57.3887 29.0156C57.8158 29.6094 58.0293 30.375 58.0293 31.3125ZM67.7324 34.1875C68.1595 34.1875 68.597 34.151 69.0449 34.0781C69.4928 34.0052 69.8574 33.9167 70.1387 33.8125V35.8281C69.8366 35.9635 69.4147 36.0781 68.873 36.1719C68.3418 36.2656 67.821 36.3125 67.3105 36.3125C66.4043 36.3125 65.5814 36.1562 64.8418 35.8438C64.1022 35.5208 63.5085 34.9792 63.0605 34.2188C62.623 33.4583 62.4043 32.4062 62.4043 31.0625V20.9062H59.9668V19.6406L62.4199 18.625L63.4512 14.9062H65.0137V18.875H70.0293V20.9062H65.0137V30.9844C65.0137 32.0573 65.2585 32.8594 65.748 33.3906C66.248 33.9219 66.9095 34.1875 67.7324 34.1875ZM80.0137 18.5938C82.0553 18.5938 83.571 19.0521 84.5605 19.9688C85.5501 20.8854 86.0449 22.349 86.0449 24.3594V36H84.1543L83.6543 33.4688H83.5293C83.0501 34.0938 82.5501 34.6198 82.0293 35.0469C81.5085 35.4635 80.9043 35.7812 80.2168 36C79.5397 36.2083 78.7064 36.3125 77.7168 36.3125C76.6751 36.3125 75.748 36.1302 74.9355 35.7656C74.1335 35.401 73.498 34.849 73.0293 34.1094C72.571 33.3698 72.3418 32.4323 72.3418 31.2969C72.3418 29.5885 73.0189 28.276 74.373 27.3594C75.7272 26.4427 77.7897 25.9427 80.5605 25.8594L83.5137 25.7344V24.6875C83.5137 23.2083 83.196 22.1719 82.5605 21.5781C81.9251 20.9844 81.0293 20.6875 79.873 20.6875C78.9772 20.6875 78.123 20.8177 77.3105 21.0781C76.498 21.3385 75.7272 21.6458 74.998 22L74.2012 20.0312C74.972 19.6354 75.8574 19.2969 76.8574 19.0156C77.8574 18.7344 78.9095 18.5938 80.0137 18.5938ZM83.4824 27.5625L80.873 27.6719C78.7376 27.7552 77.2324 28.1042 76.3574 28.7188C75.4824 29.3333 75.0449 30.2031 75.0449 31.3281C75.0449 32.3073 75.3418 33.0312 75.9355 33.5C76.5293 33.9688 77.3158 34.2031 78.2949 34.2031C79.8158 34.2031 81.0605 33.7812 82.0293 32.9375C82.998 32.0938 83.4824 30.8281 83.4824 29.1406V27.5625ZM98.248 36.3125C96.7064 36.3125 95.347 35.9948 94.1699 35.3594C92.9928 34.724 92.0762 33.7552 91.4199 32.4531C90.7637 31.151 90.4355 29.5104 90.4355 27.5312C90.4355 25.4583 90.7793 23.7656 91.4668 22.4531C92.1647 21.1302 93.123 20.151 94.3418 19.5156C95.5605 18.8802 96.946 18.5625 98.498 18.5625C99.3522 18.5625 100.175 18.651 100.967 18.8281C101.769 18.9948 102.425 19.2083 102.936 19.4688L102.154 21.6406C101.633 21.4323 101.029 21.2448 100.342 21.0781C99.6647 20.9115 99.0293 20.8281 98.4355 20.8281C97.248 20.8281 96.2585 21.0833 95.4668 21.5938C94.6855 22.1042 94.097 22.8542 93.7012 23.8438C93.3158 24.8333 93.123 26.0521 93.123 27.5C93.123 28.8854 93.3105 30.0677 93.6855 31.0469C94.071 32.026 94.6387 32.776 95.3887 33.2969C96.1491 33.8073 97.097 34.0625 98.2324 34.0625C99.1387 34.0625 99.9564 33.9688 100.686 33.7812C101.415 33.5833 102.076 33.3542 102.67 33.0938V35.4062C102.097 35.6979 101.456 35.9219 100.748 36.0781C100.05 36.2344 99.2168 36.3125 98.248 36.3125ZM109.311 11.6875V24.3125C109.311 24.7292 109.295 25.2396 109.264 25.8438C109.232 26.4375 109.206 26.9635 109.186 27.4219H109.295C109.514 27.151 109.831 26.75 110.248 26.2188C110.675 25.6875 111.035 25.2604 111.326 24.9375L117.014 18.875H120.061L113.17 26.1875L120.561 36H117.436L111.389 27.8906L109.311 29.7969V36H106.732V11.6875H109.311ZM142.139 18.5625C144.024 18.5625 145.446 19.0573 146.404 20.0469C147.363 21.026 147.842 22.6042 147.842 24.7812V36H145.279V24.9062C145.279 23.5208 144.977 22.4844 144.373 21.7969C143.779 21.099 142.894 20.75 141.717 20.75C140.061 20.75 138.857 21.2292 138.107 22.1875C137.357 23.1458 136.982 24.5573 136.982 26.4219V36H134.404V24.9062C134.404 23.9792 134.269 23.2083 133.998 22.5938C133.738 21.9792 133.342 21.5208 132.811 21.2188C132.29 20.9062 131.628 20.75 130.826 20.75C129.691 20.75 128.779 20.9844 128.092 21.4531C127.404 21.9219 126.904 22.6198 126.592 23.5469C126.29 24.4635 126.139 25.5938 126.139 26.9375V36H123.545V18.875H125.639L126.029 21.2969H126.17C126.514 20.7031 126.946 20.2031 127.467 19.7969C127.988 19.3906 128.571 19.0833 129.217 18.875C129.863 18.6667 130.55 18.5625 131.279 18.5625C132.581 18.5625 133.67 18.8073 134.545 19.2969C135.43 19.776 136.071 20.5104 136.467 21.5H136.607C137.17 20.5104 137.941 19.776 138.92 19.2969C139.899 18.8073 140.972 18.5625 142.139 18.5625ZM150.467 18.875H153.248L157.029 28.8125C157.248 29.3958 157.451 29.9583 157.639 30.5C157.826 31.0312 157.993 31.5417 158.139 32.0312C158.285 32.5208 158.399 32.9948 158.482 33.4531H158.592C158.738 32.9323 158.946 32.25 159.217 31.4062C159.488 30.5521 159.779 29.6823 160.092 28.7969L163.67 18.875H166.467L159.014 38.5156C158.618 39.5677 158.154 40.4844 157.623 41.2656C157.102 42.0469 156.467 42.6458 155.717 43.0625C154.967 43.4896 154.061 43.7031 152.998 43.7031C152.508 43.7031 152.076 43.6719 151.701 43.6094C151.326 43.5573 151.003 43.4948 150.732 43.4219V41.3438C150.962 41.3958 151.238 41.4427 151.561 41.4844C151.894 41.526 152.238 41.5469 152.592 41.5469C153.238 41.5469 153.795 41.4219 154.264 41.1719C154.743 40.9323 155.154 40.5781 155.498 40.1094C155.842 39.6406 156.139 39.0833 156.389 38.4375L157.326 36.0312L150.467 18.875Z" fill="#032C57"/>
<path d="M171.795 11.6875V17.7656C171.795 18.4635 171.774 19.1406 171.732 19.7969C171.701 20.4531 171.675 20.9635 171.654 21.3281H171.795C172.264 20.5573 172.941 19.9062 173.826 19.375C174.712 18.8438 175.842 18.5781 177.217 18.5781C179.363 18.5781 181.071 19.3229 182.342 20.8125C183.623 22.2917 184.264 24.4948 184.264 27.4219C184.264 29.349 183.972 30.974 183.389 32.2969C182.805 33.6198 181.982 34.6198 180.92 35.2969C179.857 35.974 178.602 36.3125 177.154 36.3125C175.8 36.3125 174.686 36.0625 173.811 35.5625C172.946 35.0521 172.279 34.4323 171.811 33.7031H171.607L171.076 36H169.201V11.6875H171.795ZM176.795 20.75C175.555 20.75 174.571 20.9948 173.842 21.4844C173.113 21.9635 172.587 22.6927 172.264 23.6719C171.951 24.6406 171.795 25.8698 171.795 27.3594V27.5C171.795 29.6562 172.154 31.3073 172.873 32.4531C173.592 33.5885 174.899 34.1562 176.795 34.1562C178.389 34.1562 179.581 33.5729 180.373 32.4062C181.175 31.2396 181.576 29.5729 181.576 27.4062C181.576 25.1979 181.18 23.5365 180.389 22.4219C179.607 21.3073 178.41 20.75 176.795 20.75ZM191.389 18.875V36H188.795V18.875H191.389ZM190.123 12.4688C190.55 12.4688 190.915 12.6094 191.217 12.8906C191.529 13.1615 191.686 13.5885 191.686 14.1719C191.686 14.7448 191.529 15.1719 191.217 15.4531C190.915 15.7344 190.55 15.875 190.123 15.875C189.675 15.875 189.3 15.7344 188.998 15.4531C188.706 15.1719 188.561 14.7448 188.561 14.1719C188.561 13.5885 188.706 13.1615 188.998 12.8906C189.3 12.6094 189.675 12.4688 190.123 12.4688ZM207.889 36H195.404V34.2812L204.795 20.9062H195.998V18.875H207.686V20.7969L198.42 33.9844H207.889V36Z" fill="#F26419"/>
</svg>
